# 3ds Max Wavefront OBJ Exporter v0.97b - (c)2007 guruware
# 创建的文件:05.05.2016 09:36:19

mtllib point.mtl

#
# object Circle001
#

v  -1.9743 0.3140 -4.5743
v  -2.0272 0.3140 -5.0326
v  -2.0272 5.3140 -5.0326
v  -1.9743 5.3140 -4.5743
v  -2.1777 0.3140 -5.4534
v  -2.1777 5.3140 -5.4534
v  -2.4140 0.3140 -5.8248
v  -2.4140 5.3140 -5.8248
v  -2.7238 0.3140 -6.1346
v  -2.7238 5.3140 -6.1346
v  -3.0952 0.3140 -6.3708
v  -3.0952 5.3140 -6.3708
v  -3.5160 0.3140 -6.5214
v  -3.5160 5.3140 -6.5214
v  -3.9743 0.3140 -6.5743
v  -3.9743 5.3140 -6.5743
v  -4.4325 0.3140 -6.5214
v  -4.4325 5.3140 -6.5214
v  -4.8534 0.3140 -6.3708
v  -4.8534 5.3140 -6.3708
v  -5.2248 0.3140 -6.1346
v  -5.2248 5.3140 -6.1346
v  -5.5346 0.3140 -5.8248
v  -5.5346 5.3140 -5.8248
v  -5.7708 0.3140 -5.4534
v  -5.7708 5.3140 -5.4534
v  -5.9214 0.3140 -5.0326
v  -5.9214 5.3140 -5.0326
v  -5.9743 0.3140 -4.5743
v  -5.9743 5.3140 -4.5743
v  -5.9214 0.3140 -4.1160
v  -5.9214 5.3140 -4.1160
v  -5.7708 0.3140 -3.6952
v  -5.7708 5.3140 -3.6952
v  -5.5346 0.3140 -3.3238
v  -5.5346 5.3140 -3.3238
v  -5.2248 0.3140 -3.0140
v  -5.2248 5.3140 -3.0140
v  -4.8534 0.3140 -2.7778
v  -4.8534 5.3140 -2.7778
v  -4.4325 0.3140 -2.6272
v  -4.4325 5.3140 -2.6272
v  -3.9743 0.3140 -2.5743
v  -3.9743 5.3140 -2.5743
v  -3.5160 0.3140 -2.6272
v  -3.5160 5.3140 -2.6272
v  -3.0952 0.3140 -2.7778
v  -3.0952 5.3140 -2.7778
v  -2.7238 0.3140 -3.0140
v  -2.7238 5.3140 -3.0140
v  -2.4140 0.3140 -3.3238
v  -2.4140 5.3140 -3.3238
v  -2.1777 0.3140 -3.6952
v  -2.1777 5.3140 -3.6952
v  -2.0272 0.3140 -4.1160
v  -2.0272 5.3140 -4.1160
v  -4.4457 5.3140 -4.6194
v  -4.4560 5.3140 -4.7087
v  -4.4560 8.3140 -4.7087
v  -4.4457 8.3140 -4.6194
v  -4.4854 5.3140 -4.7906
v  -4.4854 8.3140 -4.7906
v  -4.5314 5.3140 -4.8630
v  -4.5314 8.3140 -4.8630
v  -4.5917 5.3140 -4.9233
v  -4.5917 8.3140 -4.9233
v  -4.6640 5.3140 -4.9693
v  -4.6640 8.3140 -4.9693
v  -4.7460 5.3140 -4.9986
v  -4.7460 8.3140 -4.9986
v  -4.8352 5.3140 -5.0089
v  -4.8352 8.3140 -5.0089
v  -4.9245 5.3140 -4.9986
v  -4.9245 8.3140 -4.9986
v  -5.0065 5.3140 -4.9693
v  -5.0065 8.3140 -4.9693
v  -5.0788 5.3140 -4.9233
v  -5.0788 8.3140 -4.9233
v  -5.1391 5.3140 -4.8630
v  -5.1391 8.3140 -4.8630
v  -5.1851 5.3140 -4.7906
v  -5.1851 8.3140 -4.7906
v  -5.2145 5.3140 -4.7087
v  -5.2145 8.3140 -4.7087
v  -5.2248 5.3140 -4.6194
v  -5.2248 8.3140 -4.6194
v  -5.2145 5.3140 -4.5302
v  -5.2145 8.3140 -4.5302
v  -5.1851 5.3140 -4.4482
v  -5.1851 8.3140 -4.4482
v  -5.1391 5.3140 -4.3759
v  -5.1391 8.3140 -4.3759
v  -5.0788 5.3140 -4.3156
v  -5.0788 8.3140 -4.3156
v  -5.0065 5.3140 -4.2695
v  -5.0065 8.3140 -4.2695
v  -4.9245 5.3140 -4.2402
v  -4.9245 8.3140 -4.2402
v  -4.8352 5.3140 -4.2299
v  -4.8352 8.3140 -4.2299
v  -4.7460 5.3140 -4.2402
v  -4.7460 8.3140 -4.2402
v  -4.6640 5.3140 -4.2695
v  -4.6640 8.3140 -4.2695
v  -4.5917 5.3140 -4.3156
v  -4.5917 8.3140 -4.3156
v  -4.5314 5.3140 -4.3759
v  -4.5314 8.3140 -4.3759
v  -4.4854 5.3140 -4.4482
v  -4.4854 8.3140 -4.4482
v  -4.4560 5.3140 -4.5302
v  -4.4560 8.3140 -4.5302
# 112 vertices

vn 1.0000 0.0000 0.0000
vn 0.9738 0.0000 -0.2272
vn 0.8982 0.0000 -0.4395
vn 0.7801 0.0000 -0.6257
vn 0.6257 0.0000 -0.7801
vn 0.4395 0.0000 -0.8982
vn 0.2272 0.0000 -0.9738
vn 0.0000 0.0000 -1.0000
vn -0.2272 0.0000 -0.9738
vn -0.4395 0.0000 -0.8982
vn -0.6257 0.0000 -0.7801
vn -0.7801 0.0000 -0.6257
vn -0.8982 0.0000 -0.4395
vn -0.9738 0.0000 -0.2272
vn -1.0000 0.0000 0.0000
vn -0.9738 0.0000 0.2272
vn -0.8982 0.0000 0.4395
vn -0.7801 0.0000 0.6257
vn -0.6257 0.0000 0.7801
vn -0.4395 0.0000 0.8982
vn -0.2272 0.0000 0.9738
vn -0.0000 0.0000 1.0000
vn 0.2272 0.0000 0.9738
vn 0.4395 0.0000 0.8982
vn 0.6257 0.0000 0.7801
vn 0.7801 0.0000 0.6257
vn 0.8982 0.0000 0.4395
vn 0.9738 0.0000 0.2272
vn 0.0000 -1.0000 -0.0000
vn 0.0000 1.0000 -0.0000
# 30 vertex normals

g Circle001
usemtl wire_006135006
s 1
f 1//1 2//2 3//2 4//1 
s 3
f 2//2 5//3 6//3 3//2 
s 2
f 5//3 7//4 8//4 6//3 
f 7//4 9//5 10//5 8//4 
f 9//5 11//6 12//6 10//5 
f 11//6 13//7 14//7 12//6 
f 13//7 15//8 16//8 14//7 
f 15//8 17//9 18//9 16//8 
f 17//9 19//10 20//10 18//9 
f 19//10 21//11 22//11 20//10 
f 21//11 23//12 24//12 22//11 
f 23//12 25//13 26//13 24//12 
f 25//13 27//14 28//14 26//13 
f 27//14 29//15 30//15 28//14 
f 29//15 31//16 32//16 30//15 
f 31//16 33//17 34//17 32//16 
f 33//17 35//18 36//18 34//17 
f 35//18 37//19 38//19 36//18 
f 37//19 39//20 40//20 38//19 
f 39//20 41//21 42//21 40//20 
f 41//21 43//22 44//22 42//21 
f 43//22 45//23 46//23 44//22 
f 45//23 47//24 48//24 46//23 
f 47//24 49//25 50//25 48//24 
f 49//25 51//26 52//26 50//25 
f 51//26 53//27 54//27 52//26 
f 53//27 55//28 56//28 54//27 
s 3
f 55//28 1//1 4//1 56//28 
s 16
f 27//29 25//29 31//29 29//29 
f 25//29 35//29 33//29 31//29 
f 23//29 21//29 35//29 25//29 
f 21//29 39//29 37//29 35//29 
f 21//29 43//29 41//29 39//29 
f 21//29 47//29 45//29 43//29 
f 21//29 51//29 49//29 47//29 
f 21//29 55//29 53//29 51//29 
f 21//29 2//29 1//29 55//29 
f 21//29 7//29 5//29 2//29 
f 21//29 11//29 9//29 7//29 
f 21//29 15//29 13//29 11//29 
f 21//29 19//29 17//29 15//29 
f 28//30 30//30 32//30 26//30 
f 26//30 32//30 34//30 36//30 
f 24//30 26//30 36//30 22//30 
f 22//30 36//30 38//30 40//30 
f 22//30 40//30 42//30 44//30 
f 22//30 44//30 46//30 48//30 
f 22//30 48//30 50//30 52//30 
f 22//30 52//30 54//30 56//30 
f 22//30 56//30 4//30 3//30 
f 22//30 3//30 6//30 8//30 
f 22//30 8//30 10//30 12//30 
f 22//30 12//30 14//30 16//30 
f 22//30 16//30 18//30 20//30 
s 1
f 57//1 58//2 59//2 60//1 
s 3
f 58//2 61//3 62//3 59//2 
s 2
f 61//3 63//4 64//4 62//3 
f 63//4 65//5 66//5 64//4 
f 65//5 67//6 68//6 66//5 
f 67//6 69//7 70//7 68//6 
f 69//7 71//8 72//8 70//7 
f 71//8 73//9 74//9 72//8 
f 73//9 75//10 76//10 74//9 
f 75//10 77//11 78//11 76//10 
f 77//11 79//12 80//12 78//11 
f 79//12 81//13 82//13 80//12 
f 81//13 83//14 84//14 82//13 
f 83//14 85//15 86//15 84//14 
f 85//15 87//16 88//16 86//15 
f 87//16 89//17 90//17 88//16 
f 89//17 91//18 92//18 90//17 
f 91//18 93//19 94//19 92//18 
f 93//19 95//20 96//20 94//19 
f 95//20 97//21 98//21 96//20 
f 97//21 99//22 100//22 98//21 
f 99//22 101//23 102//23 100//22 
f 101//23 103//24 104//24 102//23 
f 103//24 105//25 106//25 104//24 
f 105//25 107//26 108//26 106//25 
f 107//26 109//27 110//27 108//26 
f 109//27 111//28 112//28 110//27 
s 3
f 111//28 57//1 60//1 112//28 
s 16
f 83//29 81//29 87//29 85//29 
f 81//29 91//29 89//29 87//29 
f 79//29 93//29 91//29 81//29 
f 77//29 75//29 93//29 79//29 
f 73//29 71//29 93//29 75//29 
f 69//29 67//29 93//29 71//29 
f 65//29 63//29 93//29 67//29 
f 61//29 58//29 93//29 63//29 
f 57//29 111//29 93//29 58//29 
f 109//29 107//29 93//29 111//29 
f 105//29 95//29 93//29 107//29 
f 105//29 99//29 97//29 95//29 
f 105//29 103//29 101//29 99//29 
f 84//30 86//30 88//30 82//30 
f 82//30 88//30 90//30 92//30 
f 80//30 82//30 92//30 94//30 
f 78//30 80//30 94//30 76//30 
f 74//30 76//30 94//30 72//30 
f 70//30 72//30 94//30 68//30 
f 66//30 68//30 94//30 64//30 
f 62//30 64//30 94//30 59//30 
f 60//30 59//30 94//30 112//30 
f 110//30 112//30 94//30 108//30 
f 106//30 108//30 94//30 96//30 
f 106//30 96//30 98//30 100//30 
f 106//30 100//30 102//30 104//30 
# 108 polygons

